<?xml version="1.0" encoding="UTF-8" standalone="no"?>
<!-- Created with Inkscape (http://www.inkscape.org/) -->

<svg
   xmlns:dc="http://purl.org/dc/elements/1.1/"
   xmlns:cc="http://creativecommons.org/ns#"
   xmlns:rdf="http://www.w3.org/1999/02/22-rdf-syntax-ns#"
   xmlns:svg="http://www.w3.org/2000/svg"
   xmlns="http://www.w3.org/2000/svg"
   xmlns:sodipodi="http://sodipodi.sourceforge.net/DTD/sodipodi-0.dtd"
   xmlns:inkscape="http://www.inkscape.org/namespaces/inkscape"
   width="210mm"
   height="297mm"
   viewBox="0 0 210 297"
   version="1.1"
   id="svg8"
   inkscape:version="0.92.2 5c3e80d, 2017-08-06"
   sodipodi:docname="logo.svg">
  <defs
     id="defs2" />
  <sodipodi:namedview
     id="base"
     pagecolor="#ffffff"
     bordercolor="#666666"
     borderopacity="1.0"
     inkscape:pageopacity="0.0"
     inkscape:pageshadow="2"
     inkscape:zoom="0.49497475"
     inkscape:cx="-252.56751"
     inkscape:cy="938.18499"
     inkscape:document-units="mm"
     inkscape:current-layer="layer1"
     showgrid="false"
     inkscape:window-width="1920"
     inkscape:window-height="992"
     inkscape:window-x="0"
     inkscape:window-y="0"
     inkscape:window-maximized="1" />
  <metadata
     id="metadata5">
    <rdf:RDF>
      <cc:Work
         rdf:about="">
        <dc:format>image/svg+xml</dc:format>
        <dc:type
           rdf:resource="http://purl.org/dc/dcmitype/StillImage" />
        <dc:title></dc:title>
      </cc:Work>
    </rdf:RDF>
  </metadata>
  <g
     inkscape:label="Layer 1"
     inkscape:groupmode="layer"
     id="layer1">
    <path
       style="fill:none;fill-rule:evenodd;stroke:#000000;stroke-width:0.26458332px;stroke-linecap:butt;stroke-linejoin:miter;stroke-opacity:1"
       d="M 22.985178,21.712386 16.036172,62.871893 53.721175,47.9048 32.072343,39.886713 54.522982,28.126856 Z"
       id="path815"
       inkscape:connector-curvature="0"
       sodipodi:nodetypes="cccccc" />
    <path
       style="fill:none;fill-rule:evenodd;stroke:#000000;stroke-width:0.26458332px;stroke-linecap:butt;stroke-linejoin:miter;stroke-opacity:1"
       d="m 65.122051,22.6249 -7.391835,38.910646 29.132381,-8.95353 1.588555,-5.916288 -24.062125,7.598187 6.479319,-33.376266 z"
       id="path817"
       inkscape:connector-curvature="0"
       sodipodi:nodetypes="ccccccc" />
    <path
       style="fill:none;fill-rule:evenodd;stroke:#000000;stroke-width:0.26458332px;stroke-linecap:butt;stroke-linejoin:miter;stroke-opacity:1"
       d="m 102.36423,22.781464 -7.750815,40.090429 5.879935,-2.138157 8.01808,-39.55589 z"
       id="path819"
       inkscape:connector-curvature="0" />
    <path
       style="fill:none;fill-rule:evenodd;stroke:#000000;stroke-width:0.26458332px;stroke-linecap:butt;stroke-linejoin:miter;stroke-opacity:1"
       d="m 116.52952,21.445118 35.27957,-2e-6 -2.13815,6.681739 h -14.69983 l -6.68173,32.87415 -6.68174,1.069078 7.48354,-34.210497 -14.43255,-0.267272 z"
       id="path821"
       inkscape:connector-curvature="0"
       sodipodi:nodetypes="ccccccccc" />
    <path
       style="fill:none;fill-rule:evenodd;stroke:#000000;stroke-width:0.24583481px;stroke-linecap:butt;stroke-linejoin:miter;stroke-opacity:1"
       d="m 154.68552,23.048733 34.14862,-2.138156 -32.76421,34.477769 32.99495,-7.750815 -4.61468,8.285353 -36.91742,4.810852 30.6876,-33.943228 -28.03416,4.677217 z"
       id="path823"
       inkscape:connector-curvature="0"
       sodipodi:nodetypes="ccccccccc" />
    <path
       style="fill:none;fill-rule:evenodd;stroke:#000000;stroke-width:0.26458332px;stroke-linecap:butt;stroke-linejoin:miter;stroke-opacity:1"
       d="m 25.616708,25.852152 18.520833,3.590775 -21.26116,10.961308 z"
       id="path825"
       inkscape:connector-curvature="0"
       sodipodi:nodetypes="cccc" />
    <path
       style="fill:none;fill-rule:evenodd;stroke:#000000;stroke-width:0.26458332px;stroke-linecap:butt;stroke-linejoin:miter;stroke-opacity:1"
       d="m 28.357037,41.632659 -5.953125,2.551337 -2.362353,13.512649 25.135416,-9.543899 z"
       id="path827"
       inkscape:connector-curvature="0" />
    <path
       style="fill:none;fill-rule:evenodd;stroke:#000000;stroke-width:0.26458332px;stroke-linecap:butt;stroke-linejoin:miter;stroke-opacity:1"
       d="m -43.215309,122.47666 -0.908173,-9.56879 2.210129,-12.7816 9.553396,-1.650281 1.984375,2.645831 -8.40997,0.37798 -2.173363,7.9375 7.370536,-1.51191 -1.322919,3.59078 -6.236606,1.13392 0.578429,6.9716 5.091215,-2.0579 1.606398,2.83482 z"
       id="path829"
       inkscape:connector-curvature="0"
       sodipodi:nodetypes="cccccccccccccc" />
    <path
       style="fill:none;fill-rule:evenodd;stroke:#000000;stroke-width:0.26458332px;stroke-linecap:butt;stroke-linejoin:miter;stroke-opacity:1"
       d="m 63.594493,72.009672 3.307292,-1.133929 -0.566965,4.252232 12.85119,-3.779762 -2.645834,19.938244 -3.401785,1.228427 2.456847,-17.386905 -9.732888,3.023811 -2.362352,13.229166 -3.401785,1.322917 z"
       id="path831"
       inkscape:connector-curvature="0"
       sodipodi:nodetypes="ccccccccccc" />
    <path
       style="fill:none;fill-rule:evenodd;stroke:#000000;stroke-width:0.26458332px;stroke-linecap:butt;stroke-linejoin:miter;stroke-opacity:1"
       d="m 103.20268,71.052104 -15.667696,4.543583 -2.405428,17.372517 14.651185,-4.354593 1.785889,-9.008881 -6.727015,1.725787 -0.367495,2.285629 4.583621,-1.2552 -0.92922,4.314962 -10.324268,3.085062 1.870887,-12.294396 12.75066,-3.741775 z"
       id="path852"
       inkscape:connector-curvature="0"
       sodipodi:nodetypes="ccccccccccccc" />
    <path
       style="fill:none;fill-rule:evenodd;stroke:#000000;stroke-width:0.26458332px;stroke-linecap:butt;stroke-linejoin:miter;stroke-opacity:1"
       d="m 108.24294,92.940103 4.11048,-21.166666 3.11831,-0.755955 -4.11049,20.883184 z"
       id="path884"
       inkscape:connector-curvature="0" />
    <path
       style="fill:none;fill-rule:evenodd;stroke:#000000;stroke-width:0.26458332px;stroke-linecap:butt;stroke-linejoin:miter;stroke-opacity:1"
       d="m 123.98188,72.144776 3.30729,-1.133929 -0.56697,4.252232 12.85119,-3.779762 -2.64583,19.938245 -3.40179,1.228426 2.45685,-17.386905 -9.73289,3.023811 -2.36235,13.229166 -3.40179,1.322918 z"
       id="path831-7"
       inkscape:connector-curvature="0"
       sodipodi:nodetypes="ccccccccccc" />
    <path
       style="fill:none;fill-rule:evenodd;stroke:#000000;stroke-width:0.26458332px;stroke-linecap:butt;stroke-linejoin:miter;stroke-opacity:1"
       d="m -10.826323,87.037811 -7.911317,10.312805 8.402777,11.052544 2.5161303,-1.28771 -7.0043603,-8.801714 7.1771403,0.373227 v -2.939965 l -7.0435003,0.606105 7.5618303,-7.522688 z"
       id="path901"
       inkscape:connector-curvature="0"
       sodipodi:nodetypes="cccccccccc" />
    <path
       style="fill:none;fill-rule:evenodd;stroke:#000000;stroke-width:0.26458332px;stroke-linecap:butt;stroke-linejoin:miter;stroke-opacity:1"
       d="m 158.03165,70.534931 -11.75986,2.873146 -3.14042,19.577493 11.62623,-2.939963 0.53454,-2.939965 -9.35444,2.405426 1.06907,-5.87993 8.81991,-2.204973 0.53454,-3.006781 -9.02034,2.204971 1.00225,-5.34539 9.08716,-2.338609 z"
       id="path933"
       inkscape:connector-curvature="0"
       sodipodi:nodetypes="ccccccccccccc" />
    <path
       style="fill:none;fill-rule:evenodd;stroke:#000000;stroke-width:0.26458332px;stroke-linecap:butt;stroke-linejoin:miter;stroke-opacity:1"
       d="m 57.333478,70.89671 -11.75986,2.873146 -3.14042,19.577493 11.62623,-2.939964 0.53454,-2.939965 -9.35444,2.405427 1.06907,-5.879931 8.81991,-2.204973 0.53454,-3.00678 -9.02034,2.20497 1.00225,-5.34539 9.08716,-2.338608 z"
       id="path933-5"
       inkscape:connector-curvature="0"
       sodipodi:nodetypes="ccccccccccccc" />
    <path
       style="fill:none;fill-rule:evenodd;stroke:#000000;stroke-width:0.26458332px;stroke-linecap:butt;stroke-linejoin:miter;stroke-opacity:1"
       d="m -33.835497,47.998376 -5.87993,39.288623 30.2014575,-9.087165 -5.3509545,-5.169832 -21.375998,9.980684 10.156241,-37.417735 z"
       id="path817-6"
       inkscape:connector-curvature="0"
       sodipodi:nodetypes="ccccccc" />
  </g>
</svg>
